<?xml version="1.0" encoding="utf-8"?>
<!-- Generator: Adobe Illustrator 21.0.0, SVG Export Plug-In . SVG Version: 6.00 Build 0)  -->
<svg version="1.1" id="图层_1" xmlns="http://www.w3.org/2000/svg" xmlns:xlink="http://www.w3.org/1999/xlink" x="0px" y="0px"
	 viewBox="0 0 200 200" enable-background="new 0 0 200 200" xml:space="preserve">
<path fill="#007348" d="M123.7,116.9c-3.7,0-7-2.4-8.1-6.1L109.7,90c-1.2-4.1,1-8.5,5-10.1l18.6-7.5c4.3-1.7,9.2,0.4,10.9,4.7
	c1.7,4.3-0.4,9.2-4.7,10.9l-11.6,4.7l3.8,13.5c1.3,4.5-1.3,9.1-5.8,10.4C125.2,116.8,124.4,116.9,123.7,116.9L123.7,116.9z
	 M69.4,116.9c-3.7,0-7-2.4-8.1-6.1L55.5,90c-1.2-4.1,1-8.5,5-10.1l18.6-7.5c4.3-1.7,9.2,0.4,10.9,4.7c1.7,4.3-0.4,9.2-4.7,10.9
	l-11.6,4.7l3.8,13.5c1.3,4.5-1.3,9.1-5.8,10.4C71,116.8,70.2,116.9,69.4,116.9L69.4,116.9z"/>
<path fill="#65513C" d="M200,102.9H0V124h142.9l19,19c0.7,0.7,1.7,1.1,2.7,1.1c2.1,0,3.8-1.7,3.8-3.8c0-1-0.4-2-1.1-2.7L153.8,124
	H200V102.9z"/>
<path fill="#00945E" d="M161.6,131.8c-5.7,5.7-5.7,14.9,0,20.5c5.7,5.7,14.9,5.7,20.5,0L161.6,131.8z"/>
<path d="M168.9,34.8c-8.5-10.4-20.9-17.4-34.9-19h0c-0.2,0-0.5-0.1-0.7-0.1c-2.9,0-5.3,2.4-5.3,5.3v16.3c-8.6-4.2-18.3-6.5-28.5-6.5
	H81.5c-36.4,0-65.9,29.5-65.9,65.9v44.6c0,23.7,19.3,43,43,43c19.9,0,36-16.2,36-36c0-16.8-13.7-30.4-30.4-30.4
	c-14.3,0-26,11.6-26,26c0,12.3,10,22.4,22.4,22.4c4.4,0,8-3.6,8-8c0-4.4-3.6-8-8-8c-3.5,0-6.3-2.8-6.3-6.3c0-5.4,4.4-9.9,9.9-9.9
	c7.9,0,14.3,6.4,14.3,14.3c0,11-8.9,19.9-19.9,19.9c-14.9,0-26.9-12.1-26.9-26.9V96.7h135.1c17.1,0,31-13.9,31-31
	C197.8,49.3,185.1,35.8,168.9,34.8L168.9,34.8z"/>
<path fill="#00945E" d="M111.6,116.9c-3.7,0-7-2.4-8.1-6.1L97.7,90c-1.2-4.1,1-8.5,5-10.1l18.6-7.5c4.3-1.7,9.2,0.4,10.9,4.7
	c1.7,4.3-0.4,9.2-4.7,10.9l-11.6,4.7l3.8,13.5c1.3,4.5-1.3,9.1-5.8,10.4C113.1,116.8,112.4,116.9,111.6,116.9L111.6,116.9z
	 M57.4,116.9c-3.7,0-7-2.4-8.1-6.1L43.4,90c-1.2-4.1,1-8.5,5-10.1L67,72.5c4.3-1.7,9.2,0.4,10.9,4.7s-0.4,9.2-4.7,10.9l-11.6,4.7
	l3.8,13.5c1.3,4.5-1.3,9.1-5.8,10.4C58.9,116.8,58.1,116.9,57.4,116.9L57.4,116.9z"/>
<path fill="#00945E" d="M151.3,56.4c0,5.3,4.3,9.5,9.5,9.5s9.5-4.3,9.5-9.5s-4.3-9.5-9.5-9.5S151.3,51.1,151.3,56.4z"/>
<path fill="#333E48" d="M155,53.8c0,1.5,1.2,2.8,2.8,2.8s2.8-1.2,2.8-2.8c0,0,0,0,0,0c0-1.5-1.2-2.8-2.8-2.8
	C156.3,51,155,52.3,155,53.8C155,53.8,155,53.8,155,53.8z"/>
<path fill="#28B07F" d="M62.7,48.4c0,0.9,0.7,1.5,1.5,1.5c0.9,0,1.5-0.7,1.5-1.5l0,0c0-0.9-0.7-1.5-1.5-1.5
	C63.4,46.9,62.7,47.5,62.7,48.4z"/>
<path fill="#28B07F" d="M66.8,37.4c0,0.9,0.7,1.5,1.5,1.5c0.9,0,1.5-0.7,1.5-1.5c0,0,0,0,0,0c0-0.9-0.7-1.5-1.5-1.5
	C67.4,35.8,66.8,36.5,66.8,37.4C66.8,37.4,66.8,37.4,66.8,37.4z"/>
<path fill="#28B07F" d="M45.7,49.9c0,0.9,0.7,1.5,1.5,1.5c0.9,0,1.5-0.7,1.5-1.5c0,0,0,0,0,0c0-0.9-0.7-1.5-1.5-1.5
	S45.7,49.1,45.7,49.9C45.7,49.9,45.7,49.9,45.7,49.9z"/>
<path fill="#28B07F" d="M55.6,43.5c0-0.9-0.7-1.6-1.5-1.6s-1.6,0.7-1.6,1.5c0,0,0,0,0,0.1c0,0.9,0.7,1.5,1.6,1.5
	C54.9,45,55.6,44.3,55.6,43.5z"/>
<path fill="#28B07F" d="M75.5,40.4c0,0.9,0.7,1.5,1.5,1.5c0.9,0,1.5-0.7,1.5-1.5c0-0.9-0.7-1.5-1.5-1.5
	C76.1,38.9,75.5,39.6,75.5,40.4z"/>
<path fill="#28B07F" d="M112.9,37.4c0,0.9,0.7,1.5,1.5,1.5c0.9,0,1.5-0.7,1.5-1.5c0,0,0,0,0,0c0-0.9-0.7-1.5-1.5-1.5
	C113.6,35.8,112.9,36.5,112.9,37.4C112.9,37.4,112.9,37.4,112.9,37.4z"/>
<path fill="#28B07F" d="M109.4,48.4c0,0.9,0.7,1.5,1.5,1.5c0.9,0,1.5-0.7,1.5-1.5c0,0,0,0,0,0c0-0.9-0.7-1.5-1.5-1.5
	C110.1,46.9,109.4,47.5,109.4,48.4C109.4,48.4,109.4,48.4,109.4,48.4z"/>
<path fill="#28B07F" d="M80.1,46.9c0,0.9,0.7,1.5,1.5,1.5c0.9,0,1.5-0.7,1.5-1.5c0-0.9-0.7-1.5-1.5-1.5C80.8,45.3,80.1,46,80.1,46.9
	z"/>
<path fill="#28B07F" d="M88.9,36.7c0,0.9,0.7,1.5,1.5,1.5c0.9,0,1.5-0.7,1.5-1.5l0,0c0-0.9-0.7-1.5-1.5-1.5
	C89.6,35.1,88.9,35.8,88.9,36.7z"/>
<path fill="#28B07F" d="M104.3,38.9c0-0.9-0.7-1.5-1.5-1.5c-0.9,0-1.5,0.7-1.5,1.5c0,0,0,0,0,0c0,0.9,0.7,1.5,1.5,1.5
	C103.6,40.4,104.3,39.7,104.3,38.9z"/>
<path fill="#28B07F" d="M95.8,46.9c0,0.9,0.7,1.5,1.5,1.5c0.9,0,1.5-0.7,1.5-1.5c0-0.9-0.7-1.5-1.5-1.5C96.5,45.3,95.8,46,95.8,46.9
	z"/>
</svg>
