<?xml version="1.0" encoding="utf-8"?>
<!-- Generator: Adobe Illustrator 21.0.0, SVG Export Plug-In . SVG Version: 6.00 Build 0)  -->
<svg version="1.1" id="图层_1" xmlns="http://www.w3.org/2000/svg" xmlns:xlink="http://www.w3.org/1999/xlink" x="0px" y="0px"
	 viewBox="0 0 200 200" enable-background="new 0 0 200 200" xml:space="preserve">
<path d="M41.5,13.4V92v0.7v0.1c0.1,9.1,2.3,17.8,6.5,25.9l0.2,0.3c10,18.6,30.2,30.7,51.9,30.7s41.9-12.1,52-30.7l0.1-0.3
	c4.1-7.7,6.4-16.5,6.6-25.3v-0.6V13.4H41.5z M109.1,87.1l4.4,13.5l-11.4-8.4c-1-0.8-2.4-0.8-3.4,0l-11.4,8.3L91.7,87
	c0.4-1.2-0.1-2.6-1.1-3.3l-11.3-8.2h14.1c1.3,0,2.5-0.9,2.8-2.2l4.3-13.3l4.3,13.4c0.4,1.2,1.5,2,2.7,2l0,0h14.1l-11.4,8.3
	C109.1,84.6,108.8,86,109.1,87.1z"/>
<path fill="#111111" d="M192.9,37.2L192.9,37.2H172V8.8c0-4.3-3.4-7.7-7.8-7.7h-128c-4.3,0-7.7,3.4-7.7,7.7v28.4H7.7
	c-4.2,0-7.7,3.4-7.7,7.7v42.6c0,12.2,4.9,23.4,13,31.6l0,0c7.1,7.1,16.5,11.9,27,13c11.6,18,31.1,30.3,52.6,32.7v19.3H59.1
	c-4.2,0-7.7,3.4-7.7,7.7c0,4.2,3.5,7.7,7.7,7.7h82.6c4.2,0,7.8-3.6,7.8-7.7c0-4.3-3.6-7.7-7.8-7.7h-33.5v-19.3
	c21.5-2.3,41-14.7,52.6-32.7c10.2-1.2,19.5-5.8,26.5-12.7l0.4-0.4c8.1-8.1,13-19.3,13-31.6V44.8C200.7,40.6,197.2,37.2,192.9,37.2
	L192.9,37.2z M24,108.2L24,108.2c-5.4-5.5-8.6-12.6-8.6-20.7V52.6h13.1v42c0.2,6.5,1.2,12.9,3,19.2C28.7,112.4,26.2,110.4,24,108.2
	L24,108.2z M158.7,92.8v0.6c-0.2,8.8-2.5,17.6-6.6,25.3L152,119c-10.2,18.6-30.2,30.7-51.9,30.7S58.3,137.6,48.3,119l-0.2-0.3
	c-4.2-8-6.4-16.7-6.5-25.9v-0.1V92V13.3h117.2L158.7,92.8L158.7,92.8z M185.2,87.5L185.2,87.5c0,8.1-3.3,15.2-8.5,20.7l-0.3,0.3
	c-2.2,2.1-4.6,3.9-7.2,5.3c1.9-6.3,2.8-12.6,3-19.2v-0.4V52.6h13.1v34.9H185.2z M109.5,69.9L103.1,50c-0.3-0.8-0.9-1.6-1.8-1.9
	c-1.5-0.5-3.2,0.4-3.7,1.9l-6.4,19.9H70.3c-0.9,0-1.8,0.4-2.3,1.2c-1,1.2-0.7,3,0.6,4l17,12.3L79,107.2c-0.3,0.9-0.2,1.8,0.4,2.6
	c0.9,1.2,2.8,1.6,4,0.6l16.9-12.3l16.8,12.2c0.7,0.6,1.8,0.8,2.7,0.5c1.5-0.5,2.4-2.1,1.8-3.6l-6.5-19.9L132,75.1
	c0.8-0.5,1.3-1.4,1.3-2.4c0-1.6-1.3-2.9-2.9-2.9L109.5,69.9z M110.1,83.9L110.1,83.9c-1,0.8-1.4,2.1-1,3.2l4.4,13.5L102,92.2
	c-1-0.8-2.4-0.8-3.4,0l0,0l-11.4,8.3L91.6,87c0.4-1.2-0.1-2.6-1.1-3.3l-11.3-8.2h14.1c1.3,0,2.5-0.9,2.8-2.2l4.3-13.3l4.3,13.4
	c0.4,1.2,1.5,2,2.7,2l0,0h14.1L110.1,83.9L110.1,83.9z"/>
</svg>
