<?xml version="1.0" encoding="utf-8"?>
<!-- Generator: Adobe Illustrator 21.0.0, SVG Export Plug-In . SVG Version: 6.00 Build 0)  -->
<svg version="1.1" id="图层_1" xmlns="http://www.w3.org/2000/svg" xmlns:xlink="http://www.w3.org/1999/xlink" x="0px" y="0px"
	 viewBox="0 0 200 200" enable-background="new 0 0 200 200" xml:space="preserve">
<path fill="#A3382A" d="M185.5,124.1c-5.5,0-10,4.5-10,10c0,7-5.7,12.8-12.8,12.8c-7,0-12.8-5.7-12.8-12.8v-84
	C150.1,22.4,127.6,0,100,0S49.9,22.4,49.9,50.1v84c0,7-5.7,12.8-12.8,12.8s-12.8-5.7-12.8-12.8c0-5.5-4.5-10-10-10s-10,4.5-10,10
	c0,18,14.7,32.7,32.7,32.7S69.9,152,69.9,134v-30.3h6.5V190c0,5.5,4.5,10,10,10s10-4.5,10-10v-86.4h7.3V190c0,5.5,4.5,10,10,10
	s10-4.5,10-10v-86.4h6.5V134c0,18,14.7,32.7,32.7,32.7s32.7-14.7,32.7-32.7C195.5,128.5,191,124.1,185.5,124.1z"/>
<path fill="#E97A6E" d="M9.8,150.1c0,2.8,2.3,5,5,5s5-2.3,5-5s-2.3-5-5-5S9.8,147.4,9.8,150.1z"/>
<path fill="#E94F3D" d="M12.4,150.1c0,1.3,1.1,2.4,2.4,2.4s2.4-1.1,2.4-2.4c0-1.3-1.1-2.4-2.4-2.4S12.4,148.8,12.4,150.1z"/>
<path fill="#E97A6E" d="M23.9,161.7c0,2.8,2.3,5,5,5s5-2.3,5-5l0,0c0-2.8-2.3-5-5-5S23.9,158.9,23.9,161.7z"/>
<path fill="#E94F3D" d="M26.5,161.7c0,1.3,1.1,2.4,2.4,2.4s2.4-1.1,2.4-2.4c0-1.3-1.1-2.4-2.4-2.4S26.5,160.4,26.5,161.7z"/>
<path fill="#E97A6E" d="M44.9,160.2c0,2.8,2.3,5,5,5s5-2.3,5-5s-2.3-5-5-5S44.9,157.4,44.9,160.2z"/>
<path fill="#E94F3D" d="M47.6,160.2c0,1.3,1.1,2.4,2.4,2.4s2.4-1.1,2.4-2.4c0-1.3-1.1-2.4-2.4-2.4S47.6,158.9,47.6,160.2z"/>
<path fill="#E97A6E" d="M57,147.7c0,2.8,2.3,5,5,5c2.8,0,5-2.3,5-5s-2.3-5-5-5C59.2,142.7,57,145,57,147.7z"/>
<path fill="#E94F3D" d="M59.6,147.7c0,1.3,1.1,2.4,2.4,2.4s2.4-1.1,2.4-2.4l0,0c0-1.3-1.1-2.4-2.4-2.4S59.6,146.4,59.6,147.7
	L59.6,147.7z"/>
<path fill="#E97A6E" d="M60.1,127.9c0,2.8,2.3,5,5,5c2.7,0,5-2.3,5-5l0,0c0-2.8-2.3-5-5-5S60.1,125.1,60.1,127.9z"/>
<path fill="#E94F3D" d="M62.7,127.9c0,1.3,1.1,2.4,2.4,2.4c1.3,0,2.4-1.1,2.4-2.4l0,0c0-1.3-1.1-2.4-2.4-2.4
	C63.8,125.5,62.7,126.6,62.7,127.9L62.7,127.9z"/>
<path fill="#E97A6E" d="M75.9,128.1c0,2.8,2.3,5,5,5s5-2.3,5-5s-2.3-5-5-5S75.9,125.4,75.9,128.1z"/>
<path fill="#E94F3D" d="M78.5,128.1c0,1.3,1.1,2.4,2.4,2.4s2.4-1.1,2.4-2.4l0,0c0-1.3-1.1-2.4-2.4-2.4
	C79.6,125.8,78.5,126.8,78.5,128.1L78.5,128.1z"/>
<path fill="#E97A6E" d="M75.9,147.7c0,2.8,2.3,5,5,5s5-2.3,5-5s-2.3-5-5-5S75.9,145,75.9,147.7z"/>
<path fill="#E94F3D" d="M78.5,147.7c0,1.3,1.1,2.4,2.4,2.4s2.4-1.1,2.4-2.4l0,0c0-1.3-1.1-2.4-2.4-2.4S78.5,146.4,78.5,147.7
	L78.5,147.7z"/>
<path fill="#E97A6E" d="M75.9,167.3c0,2.8,2.3,5,5,5s5-2.3,5-5s-2.3-5-5-5S75.9,164.5,75.9,167.3z"/>
<path fill="#E94F3D" d="M78.5,167.3c0,1.3,1.1,2.4,2.4,2.4s2.4-1.1,2.4-2.4l0,0c0-1.3-1.1-2.4-2.4-2.4
	C79.6,164.9,78.5,166,78.5,167.3L78.5,167.3z"/>
<path fill="#E97A6E" d="M75.9,186.9c0,2.8,2.3,5,5,5s5-2.3,5-5s-2.3-5-5-5S75.9,184.1,75.9,186.9z"/>
<path fill="#E94F3D" d="M78.5,186.9c0,1.3,1.1,2.4,2.4,2.4s2.4-1.1,2.4-2.4l0,0c0-1.3-1.1-2.4-2.4-2.4S78.5,185.6,78.5,186.9
	L78.5,186.9z"/>
<path fill="#E97A6E" d="M180.2,150.1c0,2.8,2.3,5,5,5s5-2.3,5-5s-2.3-5-5-5S180.2,147.4,180.2,150.1z"/>
<path fill="#E94F3D" d="M182.8,150.1c0,1.3,1.1,2.4,2.4,2.4s2.4-1.1,2.4-2.4c0-1.3-1.1-2.4-2.4-2.4S182.8,148.8,182.8,150.1z"/>
<path fill="#E97A6E" d="M166,161.7c0,2.8,2.3,5,5,5s5-2.3,5-5l0,0c0-2.8-2.3-5-5-5S166,158.9,166,161.7z"/>
<path fill="#E94F3D" d="M168.7,161.7c0,1.3,1.1,2.4,2.4,2.4s2.4-1.1,2.4-2.4c0-1.3-1.1-2.4-2.4-2.4
	C169.7,159.3,168.7,160.4,168.7,161.7L168.7,161.7z"/>
<path fill="#E97A6E" d="M145,160.2c0,2.8,2.2,5,5,5s5-2.2,5-5l0,0c0-2.8-2.2-5-5-5C147.3,155.2,145,157.4,145,160.2L145,160.2z"/>
<path fill="#E94F3D" d="M147.7,160.2c0,1.3,1.1,2.4,2.4,2.4s2.4-1.1,2.4-2.4c0-1.3-1.1-2.4-2.4-2.4S147.7,158.9,147.7,160.2z"/>
<path fill="#E97A6E" d="M133,147.7c0,2.8,2.3,5,5,5s5-2.3,5-5s-2.3-5-5-5S133,145,133,147.7z"/>
<path fill="#E94F3D" d="M135.6,147.7c0,1.3,1.1,2.4,2.4,2.4c1.3,0,2.4-1.1,2.4-2.4s-1.1-2.4-2.4-2.4
	C136.7,145.3,135.6,146.4,135.6,147.7z"/>
<path fill="#E97A6E" d="M129.8,127.9c0,2.8,2.3,5,5,5s5-2.3,5-5l0,0c0-2.8-2.3-5-5-5S129.8,125.1,129.8,127.9z"/>
<path fill="#E94F3D" d="M132.5,127.9c0,1.3,1.1,2.4,2.4,2.4s2.4-1.1,2.4-2.4c0-1.3-1.1-2.4-2.4-2.4S132.5,126.6,132.5,127.9z"/>
<path fill="#E97A6E" d="M114.1,128.1c0,2.8,2.3,5,5,5s5-2.3,5-5s-2.3-5-5-5S114.1,125.4,114.1,128.1z"/>
<path fill="#E94F3D" d="M116.7,128.1c0,1.3,1.1,2.4,2.4,2.4s2.4-1.1,2.4-2.4c0-1.3-1.1-2.4-2.4-2.4
	C117.8,125.8,116.7,126.8,116.7,128.1z"/>
<path fill="#E97A6E" d="M114.1,147.7c0,2.8,2.3,5,5,5s5-2.3,5-5s-2.3-5-5-5S114.1,145,114.1,147.7z"/>
<path fill="#E94F3D" d="M116.7,147.7c0,1.3,1.1,2.4,2.4,2.4s2.4-1.1,2.4-2.4c0-1.3-1.1-2.4-2.4-2.4
	C117.8,145.3,116.7,146.4,116.7,147.7z"/>
<path fill="#E97A6E" d="M114.1,167.3c0,2.8,2.3,5,5,5s5-2.3,5-5s-2.3-5-5-5S114.1,164.5,114.1,167.3z"/>
<path fill="#E94F3D" d="M116.7,167.3c0,1.3,1.1,2.4,2.4,2.4s2.4-1.1,2.4-2.4c0-1.3-1.1-2.4-2.4-2.4
	C117.8,164.9,116.7,166,116.7,167.3z"/>
<path fill="#E97A6E" d="M114.1,186.9c0,2.8,2.3,5,5,5s5-2.3,5-5s-2.3-5-5-5S114.1,184.1,114.1,186.9z"/>
<path fill="#E94F3D" d="M116.7,186.9c0,1.3,1.1,2.4,2.4,2.4s2.4-1.1,2.4-2.4c0-1.3-1.1-2.4-2.4-2.4
	C117.8,184.5,116.7,185.6,116.7,186.9L116.7,186.9z"/>
<path fill="#E97A6E" d="M46.4,77.4c0,6.8,5.5,12.4,12.4,12.4c6.8,0,12.4-5.5,12.4-12.4l0,0c0-6.8-5.5-12.4-12.4-12.4
	S46.4,70.6,46.4,77.4L46.4,77.4z"/>
<path d="M53.2,77.4c0,3.1,2.5,5.5,5.5,5.5s5.5-2.5,5.5-5.5c0-3.1-2.5-5.5-5.5-5.5S53.2,74.4,53.2,77.4z"/>
<path fill="#E97A6E" d="M128.8,77.4c0,6.8,5.5,12.4,12.4,12.4c6.8,0,12.4-5.5,12.4-12.4l0,0c0-6.8-5.5-12.4-12.4-12.4
	C134.4,65,128.8,70.6,128.8,77.4L128.8,77.4z"/>
<path d="M135.7,77.4c0,3.1,2.5,5.5,5.5,5.5s5.5-2.5,5.5-5.5c0-3.1-2.5-5.5-5.5-5.5S135.7,74.4,135.7,77.4z"/>
<path fill="#E97A6E" d="M111.7,24.5c0,3.2,2.6,5.8,5.8,5.8c3.2,0,5.8-2.6,5.8-5.8l0,0c0-3.2-2.6-5.8-5.8-5.8
	C114.3,18.7,111.7,21.3,111.7,24.5L111.7,24.5z"/>
<path fill="#E97A6E" d="M128.8,24.5c0,2,1.6,3.7,3.7,3.7c2,0,3.7-1.6,3.7-3.7l0,0c0-2-1.6-3.7-3.7-3.7
	C130.5,20.8,128.8,22.4,128.8,24.5L128.8,24.5z"/>
<path fill="#E97A6E" d="M106.3,11.7c0,2,1.6,3.7,3.7,3.7c2,0,3.7-1.6,3.7-3.7l0,0c0-2-1.6-3.7-3.7-3.7S106.3,9.7,106.3,11.7
	L106.3,11.7z"/>
</svg>
