<?xml version="1.0" encoding="utf-8"?>
<!-- Generator: Adobe Illustrator 21.0.0, SVG Export Plug-In . SVG Version: 6.00 Build 0)  -->
<svg version="1.1" id="图层_1" xmlns="http://www.w3.org/2000/svg" xmlns:xlink="http://www.w3.org/1999/xlink" x="0px" y="0px"
	 viewBox="0 0 200 200" enable-background="new 0 0 200 200" xml:space="preserve">
<path fill="#111111" d="M120.9,47.7c-4,0-7.5,3.4-7.5,7.5s3.4,7.5,7.5,7.5c4,0,7.5-3.2,7.5-7.5C128.4,51.1,124.9,47.7,120.9,47.7z
	 M120.9,23.2c-4,0-7.5,3.2-7.5,7.5c0,4,3.4,7.5,7.5,7.5c4,0,7.5-3.4,7.5-7.5S124.9,23.2,120.9,23.2z M120.9,72.3
	c-2,0-3.8,0.8-5.3,2.2s-2.2,3.2-2.2,5.3c0,2,0.8,3.8,2.2,5.3s3.2,2.2,5.3,2.2c2,0,3.8-0.8,5.3-2.2s2.2-3.2,2.2-5.3
	c0-2-0.8-3.8-2.2-5.3C124.7,73.1,122.7,72.3,120.9,72.3z M177.5,79.8c0-4-3.4-7.5-7.5-7.5c-4,0-7.5,3.4-7.5,7.5c0,4,3.2,7.5,7.5,7.5
	C174.2,87.3,177.5,83.9,177.5,79.8z M152.8,79.8c0-4-3.2-7.5-7.5-7.5c-4,0-7.5,3.4-7.5,7.5c0,4,3.4,7.5,7.5,7.5
	C149.6,87.3,152.8,83.9,152.8,79.8z"/>
<path d="M168.8,110H90.4V31.6C47.2,31.6,12,66.8,12,110s35.1,78.3,78.3,78.3S168.8,153.3,168.8,110z"/>
<path fill="#111111" d="M90.4,31.6V110h78.3c0,43.3-35.2,78.3-78.4,78.3S12,153.3,12,110S47.2,31.6,90.4,31.6 M168.8,110L168.8,110
	 M90.4,20c-49.7,0-90,40.4-90,90c0,49.6,40.4,90,90,90c49.6,0,89.9-40.2,90-89.7c0-0.1,0-0.2,0-0.3c0-6.4-5.2-11.6-11.6-11.6h0
	h-66.7V31.6C102.1,25.2,96.9,20,90.4,20L90.4,20z"/>
<text transform="matrix(1 0 0 1 306 396)" font-family="'AdobeSongStd-Light-GBpc-EUC-H'" font-size="12px">fill=&quot;#111111&quot;</text>
<path fill="#111111" d="M194.1,87.3c-3.3,0-6-2.7-6-6c0-37.7-30.7-68.5-68.5-68.5c-3.3,0-6-2.7-6-6s2.7-6,6-6
	c44.4,0,80.5,36.1,80.5,80.5C200.1,84.6,197.4,87.3,194.1,87.3z"/>
</svg>
