<?xml version="1.0" encoding="utf-8"?>
<!-- Generator: Adobe Illustrator 21.0.0, SVG Export Plug-In . SVG Version: 6.00 Build 0)  -->
<svg version="1.1" id="图层_1" xmlns="http://www.w3.org/2000/svg" xmlns:xlink="http://www.w3.org/1999/xlink" x="0px" y="0px"
	 viewBox="0 0 200 200" enable-background="new 0 0 200 200" xml:space="preserve">
<path fill="#010101" d="M163,132c-11.1,0-21.2,5.3-27.5,14l-62-14.3c-0.8-10-6-19-14.1-24.7l9.1-48.9c3.6-1.7,6.8-4.1,9.3-7.2
	l10.3-0.6c-3.2,3.8-5,8.6-5,13.9c0,3.6,0.9,7.1,2.5,10.2l-2,6.3c-7.5,3.5-12.7,11.1-12.7,19.8c0,12,9.8,21.8,21.8,21.8
	c5.4,0,10.5-2,14.4-5.4l14,0.2c5.2,7,13.5,11.3,22.4,11.3c15.4,0,27.9-12.5,27.9-27.9c0-7.1-2.7-13.7-7.3-18.8l6.3-27.7
	c10.6-4.1,18-14.2,18-26c0-15.4-12.5-27.9-27.9-27.9c-10.9,0-20.5,6.4-25.1,15.7l-54.8,3.2c-4.9-8.4-14.1-14-24.2-14
	C41,5.1,28.5,17.6,28.5,33c0,7.8,3.2,15.1,8.8,20.3L28,102.7c-13.2,4.8-22.4,17.4-22.4,31.9c0,18.7,15.2,34,34,34
	c7.6,0,15-2.6,21-7.4l70.5,16.3c4.8,13.2,17.5,22.5,31.9,22.5c18.7,0,34-15.2,34-34C196.9,147.3,181.7,132,163,132z M162.9,190.2
	c-12.2,0-22.3-9.2-23.9-20.9l-81.3-18.8c-4.4,5-10.9,8.3-18.1,8.3c-13.4,0-24.2-10.8-24.2-24.2c0-12.2,9.3-22.4,21.1-23.9L48,49.1
	c-5.9-3.1-9.7-9.2-9.7-16.1c0-10,8.1-18.1,18.1-18.1c8.8,0,16.1,6.3,17.8,14.4l68.4-4c1.3-8.7,8.8-15.3,17.8-15.3
	c9.9,0,18.1,8.1,18.1,18.1c0,9.3-7.1,17.1-16.4,18l-9,39.2c5,3.3,8.4,9,8.4,15.3c0,9.9-8.1,18.1-18.1,18.1c-7.5,0-14-4.6-16.8-11.2
	l-23.9-0.4c-2.1,3.3-5.9,5.5-10.1,5.5c-6.6,0-12-5.4-12-12c0-6.2,4.7-11.3,10.7-11.9l4.9-15.8c-2.1-2.2-3.5-5.2-3.5-8.6
	c0-6.6,5.4-12,12-12c6.6,0,12,5.4,12,12c0,5.6-4,10.3-9.1,11.7l-5.5,17.5c0.2,0.3,0.4,0.6,0.6,0.9l23.5,0.1
	c2.3-6.4,8.1-11.1,15-11.9l9.1-39.4c-2.3-1.5-4.2-3.6-5.7-6l-72.5,4.2c-2.4,4.8-7,8.2-12.4,9.3L48.5,112c9,3.7,15.3,12.3,15.3,22.5
	c0,1.6-0.2,3.3-0.5,4.8l77.1,17.8c3.6-9.1,12.3-15.4,22.5-15.4c13.4,0,24.1,10.8,24.1,24.2C187.1,179.4,176.3,190.2,162.9,190.2z
	 M119.9,48.4l19.6-1.1l-6.3,27.3c-5.1,2-9.5,5.5-12.6,10l-5.2,0l0.5-1.5c6.6-3.9,10.8-11,10.8-18.8C126.7,58,124.1,52.4,119.9,48.4z
	"/>
<path d="M163,141.8c-10.2,0-19,6.4-22.5,15.4l-77.1-17.8c0.3-1.5,0.5-3.2,0.5-4.8c0-10.2-6.4-18.9-15.3-22.5L60,50.6
	c5.4-1.1,10-4.4,12.4-9.3l72.5-4.2c1.4,2.4,3.4,4.4,5.7,6l-9.1,39.4c-6.9,0.8-12.7,5.5-15,11.9L103,94.3c-0.2-0.3-0.4-0.6-0.6-0.9
	l5.5-17.5c5.1-1.3,9.1-6.1,9.1-11.7c0-6.6-5.4-12-12-12c-6.6,0-12,5.4-12,12c0,3.4,1.3,6.4,3.5,8.6l-4.9,15.8
	c-6,0.7-10.7,5.8-10.7,11.9c0,6.6,5.4,12,12,12c4.2,0,8-2.2,10.1-5.5l23.9,0.4c2.8,6.6,9.3,11.2,16.8,11.2c10,0,18.1-8.2,18.1-18.1
	c0-6.4-3.4-12-8.4-15.3l9-39.2c9.3-1,16.4-8.7,16.4-18c0-10-8.2-18.1-18.1-18.1c-9.1,0-16.6,6.6-17.8,15.3l-68.4,4
	c-1.7-8.1-9.1-14.4-17.8-14.4c-10,0-18.1,8.1-18.1,18.1c0,6.9,3.9,13,9.7,16.1l-11.6,61.6c-11.9,1.5-21.1,11.7-21.1,23.9
	c0,13.4,10.8,24.2,24.2,24.2c7.2,0,13.7-3.3,18.1-8.3l81.3,18.8c1.6,11.8,11.7,20.9,23.9,20.9c13.4,0,24.2-10.8,24.2-24.2
	S176.4,141.8,163,141.8z"/>
</svg>
