<?xml version="1.0" encoding="utf-8"?>
<!-- Generator: Adobe Illustrator 21.0.0, SVG Export Plug-In . SVG Version: 6.00 Build 0)  -->
<svg version="1.1" id="图层_1" xmlns="http://www.w3.org/2000/svg" xmlns:xlink="http://www.w3.org/1999/xlink" x="0px" y="0px"
	 viewBox="0 0 200 200" enable-background="new 0 0 200 200" xml:space="preserve">
<path d="M155.3,110.4l-7.1-4.1c-1.5-0.9-2.3-2.5-2.3-4.2c0.1-2.5,0-4.9-0.2-7.3c-0.2-1.7,0.5-3.3,2-4.3l7-4.7
	c1.7-1.1,2.3-3.4,1.5-5.2l-2.3-5l-2.3-5c-0.9-1.8-2.9-2.8-4.9-2.3l-7.9,2.2c-1.7,0.5-3.4-0.1-4.6-1.4c-1.6-1.8-3.4-3.5-5.3-5
	c-1.3-1.1-2-2.7-1.7-4.4l1.6-8.3c0.4-2-0.8-4.1-2.7-4.7l-5.2-1.9l-5.2-1.9c-2-0.7-4.1,0-5.2,1.8l-4.1,7c-0.9,1.5-2.5,2.3-4.3,2.3
	c-2.6-0.2-5.1-0.1-7.6,0.2c-1.7,0.2-3.4-0.5-4.3-1.9l-4.7-6.9c-1.1-1.7-3.4-2.3-5.2-1.5l-5,2.3l-5,2.3c-1.8,0.9-2.8,2.9-2.3,4.9
	l2.1,8c0.5,1.6-0.1,3.4-1.4,4.5c-1.8,1.6-3.5,3.4-5,5.4c-1.1,1.4-2.7,2-4.4,1.7l-8.1-1.6c-2-0.4-4,0.7-4.8,2.6l-1.9,5.2l-1.9,5.2
	c-0.7,2,0,4.1,1.8,5.2l7.2,4.1c1.5,0.9,2.3,2.5,2.3,4.2c-0.1,2.5,0,5,0.2,7.4c0.2,1.7-0.5,3.4-1.9,4.3l-6.8,4.6
	c-1.7,1.1-2.3,3.4-1.5,5.2l2.3,5l2.3,5c0.9,1.8,2.9,2.8,4.9,2.3l8-2.1c1.6-0.5,3.4,0.1,4.5,1.4c1.6,1.8,3.4,3.5,5.4,5
	c1.4,1.1,2,2.7,1.7,4.4l-1.6,8.1c-0.4,2,0.8,4.1,2.7,4.7l5.2,1.9l5.2,1.9c2,0.7,4.1,0,5.2-1.8l4.1-7.2c0.9-1.5,2.5-2.3,4.2-2.3
	c2.3,0.1,4.7,0,7-0.2c1.7-0.2,3.4,0.5,4.3,2l4.7,7c1.1,1.7,3.4,2.3,5.2,1.5l5-2.3l5-2.3c1.8-0.9,2.8-2.9,2.3-4.9l-2.1-7.9
	c-0.5-1.7,0.1-3.4,1.4-4.6c1.8-1.6,3.5-3.4,5-5.3c1.1-1.3,2.7-2,4.4-1.7l8.3,1.6c2,0.4,4.1-0.8,4.7-2.7l1.9-5.2l1.9-5.2
	C157.9,113.6,157,111.4,155.3,110.4L155.3,110.4z M118.9,106.6c-3.7,10.4-15.1,15.9-25.6,12.2c-10.4-3.7-15.9-15.1-12.2-25.6
	c3.7-10.4,15.1-15.9,25.6-12.2C117.1,84.7,122.5,96.2,118.9,106.6z"/>
<path fill="#000001" d="M98.8,0.1c-26.7,0.3-51.7,11-70.3,30.1C15.1,43.9,6,60.9,2.1,79.6c-3.8,18.1-2.5,36.9,3.8,54.3
	c0.5,1.5,2,2.5,3.5,2.5c0.4,0,0.9-0.1,1.3-0.2c1.9-0.7,2.9-2.8,2.3-4.7c-12.1-33.6-4.1-70.4,20.9-96C51.1,17.7,74.2,7.8,98.9,7.5
	c24.7-0.3,48,9.1,65.7,26.4l0.6,0.5L154,34.5c-2,0-3.7,1.7-3.7,3.8c0,2,1.7,3.7,3.7,3.7h0l20.1-0.2c2,0,3.7-1.7,3.7-3.8l-0.2-20.1
	c0-2-1.7-3.7-3.7-3.7h0c-2,0-3.7,1.7-3.7,3.8l0.1,11.2l-0.6-0.5C150.7,9.9,125.5-0.2,98.8,0.1z M22,162.1l0.2,20.1
	c0,2,1.7,3.7,3.7,3.7h0c2,0,3.7-1.7,3.7-3.8L29.6,171l0.6,0.5c19.4,19,44.6,28.4,69.9,28.4c26,0,51.9-10,71.5-30
	c13.4-13.7,22.5-30.7,26.4-49.4c3.8-18.1,2.5-36.9-3.8-54.3c-0.7-1.9-2.8-2.9-4.7-2.3c-1.9,0.7-2.9,2.8-2.3,4.7
	c12.1,33.6,4.1,70.4-20.9,96c-35.6,36.5-94.4,37.2-130.8,1.5l-0.6-0.5l11.2-0.1c2,0,3.7-1.7,3.7-3.8c0-2-1.7-3.7-3.7-3.7h0
	l-20.1,0.2C23.6,158.4,22,160.1,22,162.1L22,162.1z"/>
<path fill="#000001" d="M61.1,69.1c-0.2,0.2-0.5,0.4-0.8,0.3l-8.1-1.6c-0.5-0.1-0.9-0.1-1.4-0.1c-3.2,0-6.1,1.9-7.4,4.9
	c0,0,0,0.1-0.1,0.2L39.4,83c-1.4,3.6,0.1,7.7,3.5,9.7l7.2,4.1c0.2,0.2,0.4,0.5,0.4,0.8c-0.1,2.7,0,5.4,0.3,8c0,0.3-0.1,0.7-0.3,0.8
	l-6.9,4.7c-3.2,2.2-4.3,6.3-2.7,9.8l4.5,9.9c1.3,2.8,4.1,4.6,7.2,4.6c0.7,0,1.4-0.1,2-0.3l8-2.1c0.3-0.1,0.6,0,0.8,0.3
	c1.8,2,3.8,3.8,5.9,5.4c0.2,0.2,0.4,0.5,0.3,0.8l-1.6,8.1c-0.7,3.8,1.4,7.6,5,8.9l10.3,3.8c0.9,0.3,1.8,0.5,2.8,0.5
	c2.8,0,5.4-1.5,6.9-4l4.1-7.2c0.2-0.2,0.5-0.4,0.8-0.4c2.5,0.1,5.1,0,7.6-0.2c0.3,0,0.7,0.1,0.8,0.3l4.7,7c1.5,2.2,3.9,3.5,6.5,3.5
	c1.1,0,2.3-0.2,3.3-0.7l9.9-4.5c3.5-1.6,5.4-5.5,4.3-9.2l-2.1-7.9c-0.1-0.3,0-0.6,0.3-0.9c2-1.8,3.8-3.7,5.4-5.8
	c0.2-0.2,0.5-0.4,0.8-0.3l8.3,1.6c0.5,0.1,1,0.1,1.5,0.1c3.3,0,6.3-2.1,7.4-5.2l3.8-10.3c1.4-3.6-0.1-7.7-3.5-9.7l-7.1-4.1
	c-0.2-0.2-0.4-0.5-0.4-0.8c0.1-2.6,0-5.3-0.2-7.9c0-0.3,0.1-0.6,0.3-0.8l7-4.7c3.2-2.2,4.3-6.3,2.7-9.8l-4.5-9.9
	c-1.3-2.8-4.1-4.6-7.2-4.6c-0.7,0-1.4,0.1-2.1,0.3l-7.9,2.2c-0.3,0.1-0.6,0-0.9-0.3c-1.8-2-3.7-3.8-5.7-5.4
	c-0.3-0.2-0.4-0.5-0.3-0.8l1.6-8.3c0.7-3.8-1.4-7.6-5-8.9l-10.3-3.8c-0.9-0.3-1.8-0.5-2.8-0.5c-2.8,0-5.4,1.5-6.9,4l-4.1,7
	c-0.2,0.2-0.4,0.4-0.8,0.4c-2.7-0.2-5.5-0.1-8.2,0.2c-0.3,0-0.7-0.1-0.9-0.3l-4.7-6.9c-1.5-2.2-3.9-3.5-6.5-3.5
	c-1.1,0-2.3,0.2-3.3,0.7l-9.9,4.5c-3.5,1.6-5.4,5.5-4.3,9.2l2.1,8c0.1,0.3,0,0.6-0.3,0.8C64.6,65,62.7,67,61.1,69.1z M66.9,73.7
	c1.4-1.8,2.9-3.5,4.6-5c2.3-2.1,3.2-5.2,2.5-8.2l-2.1-8c-0.1-0.2,0-0.5,0.2-0.6l9.9-4.5c0.1,0,0.1,0,0.2,0c0.1,0,0.3,0,0.4,0.2
	l4.7,6.9c1.7,2.5,4.7,3.9,7.9,3.6c2.3-0.3,4.6-0.4,6.9-0.2c3.2,0.2,6.1-1.4,7.7-4.1l4.1-7c0.1-0.2,0.4-0.3,0.7-0.2l10.3,3.8
	c0.2,0.1,0.4,0.4,0.3,0.6l-1.6,8.3c-0.6,3,0.6,6.1,3,8c1.7,1.4,3.4,2.9,4.9,4.6c1.6,1.8,3.8,2.7,6.1,2.7c0.7,0,1.5-0.1,2.2-0.3
	l7.8-2.2c0.2,0,0.5,0,0.6,0.2l4.5,9.9c0.1,0.2,0,0.5-0.2,0.6l-7,4.7c-2.5,1.7-3.9,4.7-3.6,7.8c0.2,2.3,0.3,4.5,0.2,6.8
	c-0.2,3.1,1.4,6.1,4.1,7.6l7.1,4.1c0.2,0.1,0.3,0.4,0.2,0.7l-3.8,10.3c-0.1,0.2-0.4,0.4-0.6,0.3l-8.3-1.6c-0.5-0.1-1-0.2-1.5-0.2
	c-2.5,0-4.9,1.1-6.5,3.2c-1.4,1.7-2.9,3.4-4.6,4.9c-2.3,2.1-3.3,5.3-2.5,8.3l2.1,7.9c0.1,0.2,0,0.5-0.2,0.6l-9.9,4.5
	c-0.1,0-0.1,0-0.2,0c-0.1,0-0.3,0-0.4-0.2l-4.7-7c-1.7-2.5-4.7-3.9-7.8-3.6c-2.1,0.2-4.3,0.3-6.4,0.2c-3.1-0.1-6,1.5-7.6,4.1
	l-4.1,7.2c-0.1,0.2-0.4,0.3-0.7,0.2l-10.3-3.8c-0.2-0.1-0.4-0.4-0.3-0.6l1.6-8.1c0.6-3-0.6-6.1-3-8.1c-1.8-1.4-3.4-2.9-5-4.6
	c-1.6-1.7-3.8-2.7-6.1-2.7c-0.7,0-1.4,0.1-2.1,0.3l-8,2.1c-0.2,0-0.5,0-0.6-0.2l-4.5-9.9c-0.1-0.2,0-0.5,0.2-0.6l6.9-4.7
	c2.5-1.7,3.9-4.7,3.6-7.8c-0.2-2.2-0.3-4.5-0.2-6.8c0.1-3.1-1.4-6-4.1-7.5l-7.2-4.1c-0.2-0.1-0.3-0.4-0.2-0.7l3.8-10.2
	c0.1-0.2,0.4-0.4,0.6-0.4h0l8.1,1.6c0.5,0.1,1,0.2,1.6,0.2C62.9,76.8,65.3,75.7,66.9,73.7L66.9,73.7z"/>
<path fill="#000001" d="M92,122.2c2.6,0.9,5.2,1.4,7.9,1.4c10,0,19-6.3,22.4-15.8c4.4-12.3-2.1-25.9-14.4-30.3
	c-2.6-0.9-5.2-1.4-7.9-1.4c-10,0-19,6.3-22.4,15.8C73.2,104.3,79.7,117.9,92,122.2L92,122.2z M84.6,94.4c2.3-6.5,8.5-10.8,15.4-10.8
	c1.8,0,3.7,0.3,5.5,0.9c8.5,3,12.9,12.4,9.9,20.8c-2.3,6.5-8.5,10.8-15.4,10.8c-1.8,0-3.7-0.3-5.5-0.9
	C86,112.3,81.6,102.9,84.6,94.4L84.6,94.4z"/>
</svg>
