<?xml version="1.0" encoding="utf-8"?>
<!-- Generator: Adobe Illustrator 21.0.0, SVG Export Plug-In . SVG Version: 6.00 Build 0)  -->
<svg version="1.1" id="图层_1" xmlns="http://www.w3.org/2000/svg" xmlns:xlink="http://www.w3.org/1999/xlink" x="0px" y="0px"
	 viewBox="0 0 200 200" enable-background="new 0 0 200 200" xml:space="preserve">
<path d="M169,94.7h-11.2c-1.8-8.9-5.3-17.2-10.2-24.4l7.9-7.9c2.8-2.8,2.8-7.5,0-10.3l-8.6-8.6c-2.8-2.8-7.5-2.8-10.3,0l-7.9,7.9
	c-7.4-4.9-15.6-8.4-24.4-10.2V30c0-4.1-3.3-7.2-7.2-7.2H84.8c-4.1,0-7.2,3.3-7.2,7.2v11.2c-8.9,1.8-17.2,5.3-24.4,10.2l-7.9-7.9
	c-2.8-2.8-7.5-2.8-10.3,0L26.4,52c-2.8,2.8-2.8,7.5,0,10.3l7.9,7.9c-4.9,7.4-8.4,15.6-10.2,24.4H12.9c-4.1,0-7.2,3.3-7.2,7.2V114
	c0,4.1,3.3,7.2,7.2,7.2h11.2c1.8,8.9,5.3,17.2,10.2,24.4l-7.9,7.9c-2.8,2.8-2.8,7.5,0,10.3l8.7,8.6c2.8,2.8,7.5,2.8,10.3,0l7.9-7.9
	c7.4,4.9,15.6,8.4,24.4,10.2v11.2c0,4.1,3.3,7.2,7.2,7.2h12.2c4.1,0,7.2-3.3,7.2-7.2v-11.2c8.9-1.8,17.2-5.3,24.4-10.2l7.9,7.9
	c2.8,2.8,7.5,2.8,10.3,0l8.6-8.6c2.8-2.8,2.8-7.5,0-10.3l-7.9-7.9c4.9-7.4,8.4-15.6,10.2-24.4h11.2c4.1,0,7.2-3.3,7.2-7.2v-12.2
	C176.2,98,173,94.7,169,94.7L169,94.7z M91,138.9c-17.1,0-30.9-13.8-30.9-30.9S74,77.1,91,77.1s30.9,13.8,30.9,30.9
	S108,138.9,91,138.9z"/>
<path fill="#111111" d="M90.9,140.8c18.1,0,32.8-14.7,32.8-32.8S109,75.2,90.9,75.2S58.1,89.9,58.1,108S72.8,140.8,90.9,140.8z
	 M90.9,85.5c12.4,0,22.6,10.1,22.6,22.6c0,12.6-10.1,22.6-22.6,22.6s-22.6-10.1-22.6-22.6S78.5,85.5,90.9,85.5z"/>
<path fill="#111111" d="M196.2,53.1l-3.9-1.6c0.6-3.8,0.6-7.7,0-11.5l3.9-1.6c3.1-1.3,4.6-4.9,3.3-8l-2.5-6c-1.3-3.1-4.9-4.6-8-3.3
	l-3.9,1.6c-2.3-3.1-5-5.8-8.1-8.1l1.6-3.9c0.6-1.5,0.6-3.2,0-4.7c-0.6-1.5-1.8-2.7-3.3-3.3l-6-2.5c-3.1-1.3-6.7,0.2-8,3.3l-1.6,3.9
	c-3.8-0.6-7.7-0.6-11.5,0l-1.6-3.9c-1-2.4-3.3-3.8-5.7-3.8c-0.8,0-1.6,0.1-2.3,0.5l-6,2.5c-3.1,1.3-4.6,4.9-3.3,8l1.6,3.9
	c-3.1,2.3-5.8,5-8.1,8.1l-3.9-1.6c-3.1-1.3-6.7,0.2-8,3.3l-1.2,3c-1.5-5.4-6.5-9.5-12.5-9.5H84.8c-7.1,0-13,5.8-13,13v6.8
	c-6.3,1.7-12.3,4.2-18,7.5l-4.6-4.6c-2.5-2.5-5.8-3.7-9.2-3.7c-3.5,0-6.8,1.4-9.2,3.7l-8.6,8.6c-5.1,5.1-5.1,13.2,0,18.3l4.8,4.8
	c-3.3,5.7-5.8,11.6-7.5,18H13c-7.1,0-13,5.8-13,12.9v12.1c0,7.1,5.8,13,13,13h6.6c1.7,6.3,4.2,12.3,7.5,18l-4.8,4.8
	c-5.1,5.1-5.1,13.2,0,18.3l8.6,8.6c2.5,2.5,5.8,3.7,9.2,3.7c3.5,0,6.8-1.4,9.2-3.7l4.8-4.8c5.7,3.3,11.6,5.8,18,7.5v6.7
	c0,7.1,5.8,13,13,13h12.2c7.1,0,13-5.8,13-13v-6.7c6.3-1.7,12.3-4.2,18-7.5l4.8,4.8c2.5,2.5,5.8,3.7,9.2,3.7c3.5,0,6.8-1.4,9.2-3.7
	l8.6-8.6c5.1-5.1,5.1-13.2,0-18.3l-4.8-4.8c3.3-5.7,5.8-11.6,7.5-18h6.7c7.1,0,13-5.8,13-13v-12.2c0-6.2-4.4-11.5-10.3-12.7l3.4-1.4
	c1.5-0.6,2.7-1.8,3.3-3.3c0.6-1.5,0.6-3.2,0-4.7l-1.6-3.9c3.1-2.3,5.8-5,8.1-8.1l3.9,1.6c1.5,0.6,3.2,0.6,4.7,0
	c1.5-0.6,2.7-1.8,3.3-3.3l2.5-6c0.6-1.5,0.6-3.2,0-4.7C198.9,54.9,197.7,53.7,196.2,53.1z M110.2,37.5c0.1,0.1,0.1,0.1,0.2,0.2
	c-0.1,0-0.1,0-0.2-0.1V37.5z M170.3,115.3c0,0.8-0.7,1.5-1.5,1.5h-11.2c-2.7,0-5.1,1.9-5.7,4.6c-1.6,8-4.8,15.6-9.3,22.5
	c-1.5,2.3-1.2,5.3,0.7,7.1l7.9,7.9c0.3,0.3,0.5,0.8,0.5,1c0,0.3-0.1,0.7-0.5,1l-8.6,8.7c-0.3,0.3-0.8,0.5-1,0.5
	c-0.3,0-0.7-0.1-1-0.5l-7.9-7.9c-1.9-1.9-5-2.1-7.1-0.7c-6.9,4.6-14.4,7.7-22.5,9.3c-2.6,0.5-4.6,2.9-4.6,5.7v11.1
	c0,0.8-0.7,1.5-1.5,1.5H84.9c-0.8,0-1.5-0.7-1.5-1.5v-11.2c0-2.7-1.9-5.1-4.6-5.7c-8-1.6-15.6-4.8-22.5-9.3
	c-2.3-1.5-5.3-1.2-7.1,0.7l-7.9,7.9c-0.3,0.3-0.8,0.5-1,0.5c-0.3,0-0.7-0.1-1-0.5l-8.6-8.6c-0.7-0.7-0.7-1.6,0-2.1l7.9-7.9
	c1.9-1.9,2.1-5,0.7-7.1c-4.6-6.9-7.7-14.4-9.3-22.5c-0.5-2.6-2.9-4.6-5.7-4.6H13.1c-0.8,0-1.5-0.7-1.5-1.5v-12.2
	c0-0.8,0.7-1.5,1.5-1.5h11.2c2.6,0,4.9-1.8,5.4-4.5c1.6-8,4.8-15.6,9.3-22.5c1.5-2.3,1.2-5.3-0.7-7.1l-7.9-7.9
	c-0.7-0.7-0.7-1.6,0-2.1l8.6-8.6c0.3-0.3,0.8-0.5,1-0.5c0.3,0,0.7,0.1,1,0.5l7.9,7.9c1.9,1.9,5,2.1,7.1,0.7
	c6.9-4.6,14.4-7.7,22.5-9.3c2.6-0.5,4.6-2.9,4.6-5.7V31.1c0-0.8,0.7-1.5,1.5-1.5h12.2c0.8,0,1.5,0.7,1.5,1.5v11.2
	c0,2.7,1.9,5.1,4.6,5.7c8,1.6,15.6,4.8,22.5,9.3c0.9,0.7,2,0.9,3.2,0.9c1.5,0,2.9-0.6,4.1-1.7l7.9-7.9c0.3-0.3,0.8-0.5,1-0.5
	c0.3,0,0.7,0.1,1,0.5l8.6,8.6c0.7,0.7,0.7,1.6,0,2.1l-7.9,7.9c-1.9,1.9-2.1,5-0.7,7.1c4.6,6.9,7.7,14.4,9.3,22.5
	c0.5,2.6,2.9,4.6,5.7,4.6h11.2c0.8,0,1.5,0.7,1.5,1.5V115.3z M159.8,48.9l-8.6-8.6c-1.6-1.6-3.5-2.7-5.6-3.2
	c2.2-2.1,5.1-3.3,8.2-3.3h0.1c3.2,0,6.2,1.2,8.4,3.4c2.3,2.3,3.6,5.2,3.6,8.5c0,3-1.1,5.8-3,8C162.2,52,161.2,50.3,159.8,48.9z
	 M162.5,89.8C162.5,89.9,162.6,89.9,162.5,89.8L162.5,89.8C162.5,89.9,162.5,89.9,162.5,89.8z M195.5,59.3l-2.5,6
	c-0.2,0.4-0.5,0.7-0.9,0.9c-0.4,0.2-0.9,0.2-1.3,0l-5.6-2.3c-1-0.4-2.1-0.1-2.7,0.8c-2.5,3.8-5.7,7-9.5,9.5
	c-0.9,0.6-1.2,1.7-0.8,2.7l2.3,5.6c0.2,0.4,0.2,0.9,0,1.3c-0.2,0.4-0.5,0.7-0.9,0.9l-6,2.5c-0.8,0.3-1.8,0-2.2-0.9l-2.3-5.6
	c-0.5-1.1-1.8-1.7-2.9-1.2c-0.4,0.2-0.7,0.5-1,0.8c-1.2-2.9-2.6-5.7-4.2-8.4l4.8-4.8c2.6-2.6,3.8-5.9,3.8-9.3c0.5-0.4,1-0.8,1.4-1.3
	c2.9-3,4.5-6.9,4.4-11c-0.1-4.2-1.7-8.1-4.6-11c-3-2.9-6.8-4.4-10.9-4.4h-0.1c-4.2,0.1-8.1,1.7-11,4.6c-0.5,0.5-1,1.1-1.4,1.7
	c-3.3,0.2-6.3,1.5-8.5,3.7l-4.8,4.8c-2.9-1.7-5.9-3.2-9-4.4c0.4-0.2,0.8-0.6,1-1.1c0.5-1.1-0.1-2.4-1.2-2.9l-5.6-2.3
	c-0.4-0.2-0.7-0.5-0.9-0.9c-0.2-0.4-0.2-0.9,0-1.3l2.3-6.2c0.3-0.9,1.3-1.3,2.2-0.9l5.6,2.3c1,0.4,2.1,0.1,2.7-0.8
	c2.5-3.8,5.7-7,9.5-9.5c0.9-0.6,1.2-1.7,0.8-2.7l-2.3-5.6c-0.3-0.8,0-1.8,0.9-2.2l6-2.5c0.8-0.3,1.8,0,2.2,0.9l2.3,5.6
	c0.4,1,1.5,1.5,2.5,1.3c4.4-0.9,8.9-0.9,13.4,0c1,0.2,2.1-0.3,2.5-1.3l2.3-5.6c0.3-0.8,1.3-1.3,2.2-0.9l6,2.5
	c0.4,0.2,0.7,0.5,0.9,0.9c0.2,0.4,0.2,0.9,0,1.3l-2.3,5.6c-0.4,1-0.1,2.1,0.8,2.7c3.8,2.5,7,5.7,9.5,9.5c0.6,0.9,1.7,1.2,2.7,0.8
	l5.6-2.3c0.9-0.3,1.8,0,2.2,0.9l2.5,6c0.3,0.8,0,1.8-0.9,2.2l-5.6,2.3c-1,0.4-1.5,1.5-1.3,2.5c0.9,4.4,0.9,8.9,0,13.4
	c-0.2,1,0.3,2.1,1.3,2.5l5.6,2.3c0.4,0.2,0.7,0.5,0.9,0.9C195.7,58.4,195.7,58.9,195.5,59.3z"/>
<path d="M195.5,59.3l-2.5,6c-0.2,0.4-0.5,0.7-0.9,0.9c-0.4,0.2-0.9,0.2-1.3,0l-5.6-2.3c-1-0.4-2.1-0.1-2.7,0.8
	c-2.5,3.8-5.7,7-9.5,9.5c-0.9,0.6-1.2,1.7-0.8,2.7l2.3,5.6c0.2,0.4,0.2,0.9,0,1.3c-0.2,0.4-0.5,0.7-0.9,0.9l-6,2.5
	c-0.8,0.3-1.8,0-2.2-0.9l-2.3-5.6c-0.5-1.1-1.8-1.7-2.9-1.2c-0.4,0.2-0.7,0.5-1,0.8c-1.2-2.9-2.6-5.7-4.2-8.4l4.8-4.8
	c2.6-2.6,3.8-5.9,3.8-9.3c0.5-0.4,1-0.8,1.4-1.3c2.9-3,4.5-6.9,4.4-11c-0.1-4.2-1.7-8.1-4.6-11c-3-2.9-6.8-4.4-10.9-4.4h-0.1
	c-4.2,0.1-8.1,1.7-11,4.6c-0.5,0.5-1,1.1-1.4,1.7c-3.3,0.2-6.3,1.5-8.5,3.7l-4.8,4.8c-2.9-1.7-5.9-3.2-9-4.4c0.4-0.2,0.8-0.6,1-1.1
	c0.5-1.1-0.1-2.4-1.2-2.9l-5.6-2.3c-0.4-0.2-0.7-0.5-0.9-0.9c-0.2-0.4-0.2-0.9,0-1.3l2.3-6.2c0.3-0.9,1.3-1.3,2.2-0.9l5.6,2.3
	c1,0.4,2.1,0.1,2.7-0.8c2.5-3.8,5.7-7,9.5-9.5c0.9-0.6,1.2-1.7,0.8-2.7l-2.3-5.6c-0.3-0.8,0-1.8,0.9-2.2l6-2.5
	c0.8-0.3,1.8,0,2.2,0.9l2.3,5.6c0.4,1,1.5,1.5,2.5,1.3c4.4-0.9,8.9-0.9,13.4,0c1,0.2,2.1-0.3,2.5-1.3l2.3-5.6
	c0.3-0.8,1.3-1.3,2.2-0.9l6,2.5c0.4,0.2,0.7,0.5,0.9,0.9c0.2,0.4,0.2,0.9,0,1.3l-2.3,5.6c-0.4,1-0.1,2.1,0.8,2.7
	c3.8,2.5,7,5.7,9.5,9.5c0.6,0.9,1.7,1.2,2.7,0.8l5.6-2.3c0.9-0.3,1.8,0,2.2,0.9l2.5,6c0.3,0.8,0,1.8-0.9,2.2l-5.6,2.3
	c-1,0.4-1.5,1.5-1.3,2.5c0.9,4.4,0.9,8.9,0,13.4c-0.2,1,0.3,2.1,1.3,2.5l5.6,2.3c0.4,0.2,0.7,0.5,0.9,0.9
	C195.7,58.4,195.7,58.9,195.5,59.3z"/>
</svg>
