<?xml version="1.0" encoding="utf-8"?>
<!-- Generator: Adobe Illustrator 21.0.0, SVG Export Plug-In . SVG Version: 6.00 Build 0)  -->
<svg version="1.1" id="图层_1" xmlns="http://www.w3.org/2000/svg" xmlns:xlink="http://www.w3.org/1999/xlink" x="0px" y="0px"
	 viewBox="0 0 200.8 200" enable-background="new 0 0 200.8 200" xml:space="preserve">
<path fill="#FFC445" d="M50.4,99.6c0,27.6,22.4,50,50,50s50-22.4,50-50s-22.4-50-50-50S50.4,72,50.4,99.6z"/>
<path fill="#FFC445" d="M100.4,33.3c-3.8,0-6.2-2.9-6.2-6.3V5.8c0-3.3,2.5-5.8,5.8-5.8h0.4c3.3,0,6.2,2.9,6.2,6.2v21.2
	C106.7,30.4,103.8,33.3,100.4,33.3z M100.4,200c-3.8,0-6.2-2.9-6.2-6.2v-21.2c0-3.3,2.9-6.2,6.2-6.2h0.4c3.3,0,6.2,2.9,6.2,6.2v21.2
	C106.7,197.1,103.8,200,100.4,200z M166.7,99.6c0-3.8,2.9-6.2,6.2-6.2h21.2c3.3,0,6.2,2.9,6.2,6.2v0.4c0,3.3-2.9,6.2-6.2,6.2h-21.2
	C169.6,105.8,166.7,102.9,166.7,99.6z M0,99.6c0-3.8,2.9-6.2,6.2-6.2h21.2c3.3,0,6.2,2.9,6.2,6.2v0.4c0,3.3-2.9,6.2-6.2,6.2H6.2
	C2.9,105.8,0,102.9,0,99.6z M145,48.3c-2.5-2.5-2.5-6.2-0.4-8.8l15-15c2.5-2.5,6.2-2.5,8.8,0V25c2.5,2.5,2.5,6.2,0,8.8l-15,15
	C151.2,50.8,147.1,50.8,145,48.3L145,48.3z M27.1,166.2c-2.5-2.5-2.5-6.7-0.4-8.8l15-15c2.5-2.5,6.2-2.5,8.8,0l0.4,0.4
	c2.5,2.5,2.5,6.2,0,8.7l-15,15C33.3,168.8,29.6,168.8,27.1,166.2L27.1,166.2z M144.6,142.1c2.5-2.5,6.7-2.5,8.8-0.4l15,15
	c2.5,2.5,2.5,6.2,0,8.8l-0.4,0.4c-2.5,2.5-6.2,2.5-8.8,0l-15-15C142.1,148.3,142.1,144.6,144.6,142.1z M26.7,24.2
	c2.5-2.5,6.7-2.5,8.8-0.4l15,15c2.5,2.5,2.5,6.2,0,8.8L50,47.9c-2.5,2.5-6.2,2.5-8.8,0l-14.6-15C24.6,30.4,24.6,26.7,26.7,24.2z"/>
</svg>
