<?xml version="1.0" encoding="utf-8"?>
<!-- Generator: Adobe Illustrator 21.0.0, SVG Export Plug-In . SVG Version: 6.00 Build 0)  -->
<svg version="1.1" id="图层_1" xmlns="http://www.w3.org/2000/svg" xmlns:xlink="http://www.w3.org/1999/xlink" x="0px" y="0px"
	 viewBox="0 0 200 200" enable-background="new 0 0 200 200" xml:space="preserve">
<path fill="#424242" d="M100,16.7c-22.9,0-41.7,18.8-41.7,41.7V75H75V58.3c0-13.8,11.2-25,25-25s25,11.2,25,25h16.7
	C141.7,35.4,122.9,16.7,100,16.7z"/>
<path fill="#FB8C00" d="M150,183.3H50c-9.2,0-16.7-7.5-16.7-16.7v-75C33.3,82.5,40.8,75,50,75h100c9.2,0,16.7,7.5,16.7,16.7v75
	C166.7,175.8,159.2,183.3,150,183.3z"/>
<path fill="#C76E00" d="M87.5,129.2c0,6.9,5.6,12.5,12.5,12.5s12.5-5.6,12.5-12.5c0-6.9-5.6-12.5-12.5-12.5S87.5,122.3,87.5,129.2z"
	/>
<path d="M125,58.3h16.7V75H125V58.3z"/>
</svg>
